<?xml version="1.0" encoding="utf-8"?>
<!-- Generator: Adobe Illustrator 24.0.1, SVG Export Plug-In . SVG Version: 6.00 Build 0)  -->
<svg version="1.1" id="Capa_1" xmlns="http://www.w3.org/2000/svg" xmlns:xlink="http://www.w3.org/1999/xlink" x="0px" y="0px"
	 viewBox="0 0 468.3 468.3" style="enable-background:new 0 0 468.3 468.3;" xml:space="preserve">
<style type="text/css">
	.st0{fill:#EBF0F3;}
	.st1{fill:#407F40;}
	.st2{fill:#27A2DB;}
	.st3{fill:#D5D6DB;}
	.st4{fill:#2D93BA;}
	.st5{fill:#78237C;}
	.st6{fill:#902E93;}
	.st7{fill:#F93A3A;}
	.st8{fill:#3333E5;}
</style>
<path class="st0" d="M1883.6,138.8v-90h-105.3v87.9c-69.4,21.2-119.9,85.7-119.9,162.1c0,93.6,75.9,169.4,169.4,169.4
	c93.6,0,169.4-75.9,169.4-169.4C1997.4,224.8,1949.8,161.9,1883.6,138.8z"/>
<path class="st1" d="M1714.5,354.7c11.6,0.6,27.2,11.6,42.6,10.4c4.9-0.4,8.6-1.5,8.6-1.5c6.7-2.2,9.5-6,21.9-8.2
	c13.4-2.4,27.9,1.6,39.8,5.5c12,3.9,26.5,7.9,39.9,5.4c7.2-1.3,12.4-4.3,18.4-6.7c5.9-2.4,14-4.2,21.1-2.9c8.8,1.7,9,5.6,17.7,6.7
	c8.8,1.1,18.9-4.3,26.5-7.2c0,0,4.5-2,11.1-2.6c0,0,6-1.3,2,13.1c-4.3,15.6-50.3,82.2-136.1,83h0c-65.2,1.3-110.6-38.9-127.7-67.4
	C1687.3,360.7,1704.2,354.2,1714.5,354.7z"/>
<path class="st2" d="M1780.7-1242.8"/>
<path class="st2" d="M1749.4-1164.2"/>
<path class="st0" d="M1889.6,0h-117.2c-6.9,0-12.5,5.6-12.5,12.5v23.9c0,6.9,5.6,12.5,12.5,12.5h117.2c6.9,0,12.5-5.6,12.5-12.5
	V12.5C1902.1,5.6,1896.5,0,1889.6,0z"/>
<rect x="1778.3" y="48.9" class="st3" width="105.3" height="26.3"/>
<g>
	<circle class="st4" cx="1778.3" cy="352.3" r="18.7"/>
	<circle class="st4" cx="1858.2" cy="329.1" r="18.7"/>
</g>
<circle class="st2" cx="1823" cy="197.2" r="18.7"/>
<g>
	<circle class="st4" cx="1841.8" cy="397.7" r="18.7"/>
	
		<ellipse transform="matrix(0.9951 -9.853759e-02 9.853759e-02 0.9951 -22.6868 170.3226)" class="st4" cx="1713" cy="314.8" rx="15.6" ry="15.6"/>
	<circle class="st4" cx="1911" cy="382.1" r="15.6"/>
	<circle class="st4" cx="1934.9" cy="314.8" r="15.6"/>
</g>
<g>
	<circle class="st2" cx="1744.2" cy="218.8" r="15.6"/>
	<circle class="st2" cx="1902.1" cy="218.8" r="15.6"/>
</g>
<path class="st0" d="M1361,138.8v-90h-105.3v87.9c-69.4,21.2-119.9,85.7-119.9,162.1c0,93.6,75.9,169.4,169.4,169.4
	c93.6,0,169.4-75.9,169.4-169.4C1474.8,224.8,1427.2,161.9,1361,138.8z"/>
<path class="st1" d="M1310.3,449.6c-35.9,1-62.3-12-72.7-17.3c0,0-62.6-30.1-79.2-98.7c-1.6-6.5-2.6-23,0.9-29
	c3.5-6.1,6.3-11.5,17.6-11.1c7.7,0.3,16.9,5.7,27.3,10.4c12.9,6,25.8,14.6,39.9,11.9c11.2-2.1,17.8-12.2,28.5-15.5
	c12.6-3.9,26.1,2.5,37.3,8.6c11.2,6.1,24.8,12.5,37.3,8.5c6.7-2.1,11.6-6.8,17.2-10.6c5.6-3.7,13.1-6.7,19.8-4.5
	c6.5,2.1,10,8.5,16.6,10.6c5,1.6,9.6-0.2,16.8-2.4c10.3-3.2,10.3-3.2,15.8-6.2c5.9-3.2,11.9,0.1,15.9,3.8c7.8,7.1,4.3,22.3,2.9,28.3
	C1444.8,369,1395.5,447.3,1310.3,449.6z"/>
<path class="st0" d="M1367,0h-117.2c-6.9,0-12.5,5.6-12.5,12.5v23.9c0,6.9,5.6,12.5,12.5,12.5H1367c6.9,0,12.5-5.6,12.5-12.5V12.5
	C1379.5,5.6,1373.9,0,1367,0z"/>
<rect x="1255.8" y="48.9" class="st3" width="105.3" height="26.3"/>
<g>
	<circle class="st4" cx="1255.8" cy="352.3" r="18.7"/>
	<circle class="st4" cx="1335.6" cy="329.1" r="18.7"/>
</g>
<circle class="st2" cx="1300.5" cy="197.2" r="18.7"/>
<g>
	<circle class="st4" cx="1319.2" cy="397.7" r="18.7"/>
	
		<ellipse transform="matrix(0.9951 -9.853759e-02 9.853759e-02 0.9951 -25.23 118.8299)" class="st4" cx="1190.4" cy="314.8" rx="15.6" ry="15.6"/>
	<circle class="st4" cx="1388.4" cy="382.1" r="15.6"/>
	<circle class="st4" cx="1412.4" cy="314.8" r="15.6"/>
</g>
<g>
	<circle class="st2" cx="1221.6" cy="218.8" r="15.6"/>
	<circle class="st2" cx="1379.5" cy="218.8" r="15.6"/>
</g>
<path class="st0" d="M289.8,138.8v-90H184.6v87.9C115.2,158,64.7,222.5,64.7,298.9c0,93.6,75.9,169.4,169.4,169.4
	c93.6,0,169.4-75.9,169.4-169.4C403.6,224.8,356,161.9,289.8,138.8z"/>
<path class="st1" d="M378,257.9c19.9,64.3-16.1,137.3-61.5,166.9c-32.7,21.3-66.8,24.1-82.4,24.1c-35.4,0-67.9-12.1-93.6-32.6
	c-40-32-67.6-84.3-54.2-147.2c2.2-10.1,11-52.1,52-82.1c72.3-53,46.3,6.9,66.7-1.1c16.9-6.7,16.1-23.8,40.7-4.3
	c25.1,19.9,24.7-19.5,55.9-7.6C347.5,191.5,372.8,241,378,257.9z"/>
<path class="st0" d="M295.8,0H178.6c-6.9,0-12.5,5.6-12.5,12.5v23.9c0,6.9,5.6,12.5,12.5,12.5h117.2c6.9,0,12.5-5.6,12.5-12.5V12.5
	C308.3,5.6,302.7,0,295.8,0z"/>
<rect x="184.6" y="48.9" class="st3" width="105.3" height="26.3"/>
<g>
	<circle class="st4" cx="184.6" cy="352.3" r="18.7"/>
	<circle class="st4" cx="264.4" cy="329.1" r="18.7"/>
</g>
<circle class="st2" cx="229.3" cy="197.2" r="18.7"/>
<g>
	<circle class="st4" cx="248" cy="397.7" r="18.7"/>
	
		<ellipse transform="matrix(0.9951 -9.853759e-02 9.853759e-02 0.9951 -30.4432 13.2763)" class="st4" cx="119.2" cy="314.8" rx="15.6" ry="15.6"/>
	<circle class="st4" cx="317.2" cy="382.1" r="15.6"/>
	<circle class="st4" cx="341.2" cy="314.8" r="15.6"/>
</g>
<g>
	<circle class="st2" cx="150.4" cy="218.8" r="15.6"/>
	<circle class="st2" cx="308.3" cy="218.8" r="15.6"/>
</g>
<path class="st0" d="M828,138.8v-90H722.8v87.9c-69.4,21.2-119.9,85.7-119.9,162.1c0,93.6,75.9,169.4,169.4,169.4
	c93.6,0,169.4-75.9,169.4-169.4C941.8,224.8,894.3,161.9,828,138.8z"/>
<path class="st1" d="M919.9,268.8c2,9.8,3.1,19.8,3.1,30.1c0,83.1-67.6,150.7-150.7,150.7S621.6,382,621.6,298.9
	c0-10.3,1.1-20.3,3.1-30.1c9.4-7.4,22.9-11.3,34.2-7.6c14.7,4.8,27.6,18.9,42.6,15.4c12-2.8,19-15.8,30.5-20
	c13.4-5,27.9,3.3,39.8,11.2c12,7.9,26.5,16.1,39.9,11c7.2-2.7,12.4-8.8,18.4-13.7c5.9-4.8,14-8.7,21.1-5.8
	c7,2.8,10.7,11.1,17.7,13.7c5.9,2.2,12.5-0.1,18-3.1c5.5-3,10.8-6.9,16.9-8C910,260.7,918.7,262.6,919.9,268.8z"/>
<path class="st0" d="M834,0H716.8c-6.9,0-12.5,5.6-12.5,12.5v23.9c0,6.9,5.6,12.5,12.5,12.5H834c6.9,0,12.5-5.6,12.5-12.5V12.5
	C846.5,5.6,840.9,0,834,0z"/>
<rect x="722.8" y="48.9" class="st3" width="105.3" height="26.3"/>
<g>
	<circle class="st4" cx="722.8" cy="352.3" r="18.7"/>
	<circle class="st4" cx="802.6" cy="329.1" r="18.7"/>
</g>
<circle class="st2" cx="767.5" cy="197.2" r="18.7"/>
<g>
	<circle class="st4" cx="786.2" cy="397.7" r="18.7"/>
	
		<ellipse transform="matrix(0.9951 -9.853759e-02 9.853759e-02 0.9951 -27.8239 66.3099)" class="st4" cx="657.4" cy="314.8" rx="15.6" ry="15.6"/>
	<circle class="st4" cx="855.4" cy="382.1" r="15.6"/>
	<circle class="st4" cx="879.4" cy="314.8" r="15.6"/>
</g>
<g>
	<circle class="st2" cx="688.6" cy="218.8" r="15.6"/>
	<circle class="st2" cx="846.5" cy="218.8" r="15.6"/>
</g>
<path class="st2" d="M1496.6,433.5"/>
<path class="st0" d="M1883.6-429.3v-90h-105.3v87.9c-69.4,21.2-119.9,85.7-119.9,162.1c0,93.6,75.9,169.4,169.4,169.4
	c93.6,0,169.4-75.9,169.4-169.4C1997.4-343.4,1949.8-406.3,1883.6-429.3z"/>
<path class="st5" d="M1714.5-213.5c11.6,0.6,27.2,11.6,42.6,10.4c4.9-0.4,8.6-1.5,8.6-1.5c6.7-2.2,9.5-6,21.9-8.2
	c13.4-2.4,27.9,1.6,39.8,5.5c12,3.9,26.5,7.9,39.9,5.4c7.2-1.3,12.4-4.3,18.4-6.7c5.9-2.4,14-4.2,21.1-2.9c8.8,1.7,9,5.6,17.7,6.7
	c8.8,1.1,18.9-4.3,26.5-7.2c0,0,4.5-2,11.1-2.6c0,0,6-1.3,2,13.1c-4.3,15.6-50.3,82.2-136.1,83l0,0c-65.2,1.3-110.6-38.9-127.7-67.4
	C1687.3-207.5,1704.2-214,1714.5-213.5z"/>
<path class="st0" d="M1889.6-568.2h-117.2c-6.9,0-12.5,5.6-12.5,12.5v23.9c0,6.9,5.6,12.5,12.5,12.5h117.2c6.9,0,12.5-5.6,12.5-12.5
	v-23.9C1902.1-562.6,1896.5-568.2,1889.6-568.2z"/>
<rect x="1778.3" y="-519.3" class="st3" width="105.3" height="26.3"/>
<g>
	<circle class="st4" cx="1778.3" cy="-215.9" r="18.7"/>
	<circle class="st4" cx="1858.2" cy="-239.1" r="18.7"/>
</g>
<circle class="st2" cx="1823" cy="-371" r="18.7"/>
<g>
	<circle class="st4" cx="1841.8" cy="-170.4" r="18.7"/>
	
		<ellipse transform="matrix(0.9951 -9.853759e-02 9.853759e-02 0.9951 33.3003 167.5575)" class="st4" cx="1713" cy="-253.3" rx="15.6" ry="15.6"/>
	<circle class="st4" cx="1911" cy="-186.1" r="15.6"/>
	<circle class="st4" cx="1934.9" cy="-253.3" r="15.6"/>
</g>
<g>
	<circle class="st2" cx="1744.2" cy="-349.4" r="15.6"/>
	<circle class="st2" cx="1902.1" cy="-349.4" r="15.6"/>
</g>
<path class="st0" d="M1361-429.3v-90h-105.3v87.9c-69.4,21.2-119.9,85.7-119.9,162.1c0,93.6,75.9,169.4,169.4,169.4
	c93.6,0,169.4-75.9,169.4-169.4C1474.8-343.4,1427.2-406.3,1361-429.3z"/>
<path class="st5" d="M1310.3-118.6c-35.9,1-62.3-12-72.7-17.3c0,0-62.6-30.1-79.2-98.7c-1.6-6.5-2.6-23,0.9-29
	c3.5-6.1,6.3-11.5,17.6-11.1c7.7,0.3,16.9,5.7,27.3,10.4c12.9,6,25.8,14.6,39.9,11.9c11.2-2.1,17.8-12.2,28.5-15.5
	c12.6-3.9,26.1,2.5,37.3,8.6c11.2,6.1,24.8,12.5,37.3,8.5c6.7-2.1,11.6-6.8,17.2-10.6c5.6-3.7,13.1-6.7,19.8-4.5
	c6.5,2.1,10,8.5,16.6,10.6c5,1.6,9.6-0.2,16.8-2.4c10.3-3.2,10.3-3.2,15.8-6.2c5.9-3.2,11.9,0.1,15.9,3.8c7.8,7.1,4.3,22.3,2.9,28.3
	C1444.8-199.2,1395.5-120.9,1310.3-118.6z"/>
<path class="st0" d="M1367-568.2h-117.2c-6.9,0-12.5,5.6-12.5,12.5v23.9c0,6.9,5.6,12.5,12.5,12.5H1367c6.9,0,12.5-5.6,12.5-12.5
	v-23.9C1379.5-562.6,1373.9-568.2,1367-568.2z"/>
<rect x="1255.8" y="-519.3" class="st3" width="105.3" height="26.3"/>
<g>
	<circle class="st4" cx="1255.8" cy="-215.9" r="18.7"/>
	<circle class="st4" cx="1335.6" cy="-239.1" r="18.7"/>
</g>
<circle class="st2" cx="1300.5" cy="-371" r="18.7"/>
<g>
	<circle class="st4" cx="1319.2" cy="-170.4" r="18.7"/>
	
		<ellipse transform="matrix(0.9951 -9.853759e-02 9.853759e-02 0.9951 30.7571 116.0648)" class="st4" cx="1190.4" cy="-253.3" rx="15.6" ry="15.6"/>
	<circle class="st4" cx="1388.4" cy="-186.1" r="15.6"/>
	<circle class="st4" cx="1412.4" cy="-253.3" r="15.6"/>
</g>
<g>
	<circle class="st2" cx="1221.6" cy="-349.4" r="15.6"/>
	<circle class="st2" cx="1379.5" cy="-349.4" r="15.6"/>
</g>
<path class="st0" d="M289.8-429.3v-90H184.6v87.9c-69.4,21.2-119.9,85.7-119.9,162.1c0,93.6,75.9,169.4,169.4,169.4
	c93.6,0,169.4-75.9,169.4-169.4C403.6-343.4,356-406.3,289.8-429.3z"/>
<path class="st6" d="M378-310.3C397.9-246,362-173,316.5-143.4c-32.7,21.3-66.8,24.1-82.4,24.1c-35.4,0-67.9-12.1-93.6-32.6
	c-40-32-67.6-84.3-54.2-147.2c2.2-10.1,11-52.1,52-82.1c72.3-53,46.3,6.9,66.7-1.1c16.9-6.7,16.1-23.8,40.7-4.3
	c25.1,19.9,24.7-19.5,55.9-7.6C347.5-376.7,372.8-327.2,378-310.3z"/>
<path class="st0" d="M295.8-568.2H178.6c-6.9,0-12.5,5.6-12.5,12.5v23.9c0,6.9,5.6,12.5,12.5,12.5h117.2c6.9,0,12.5-5.6,12.5-12.5
	v-23.9C308.3-562.6,302.7-568.2,295.8-568.2z"/>
<rect x="184.6" y="-519.3" class="st3" width="105.3" height="26.3"/>
<g>
	<circle class="st4" cx="184.6" cy="-215.9" r="18.7"/>
	<circle class="st4" cx="264.4" cy="-239.1" r="18.7"/>
</g>
<circle class="st2" cx="229.3" cy="-371" r="18.7"/>
<g>
	<circle class="st4" cx="248" cy="-170.4" r="18.7"/>
	
		<ellipse transform="matrix(0.9951 -9.853759e-02 9.853759e-02 0.9951 25.5439 10.5112)" class="st4" cx="119.2" cy="-253.3" rx="15.6" ry="15.6"/>
	<circle class="st4" cx="317.2" cy="-186.1" r="15.6"/>
	<circle class="st4" cx="341.2" cy="-253.3" r="15.6"/>
</g>
<g>
	<circle class="st2" cx="150.4" cy="-349.4" r="15.6"/>
	<circle class="st2" cx="308.3" cy="-349.4" r="15.6"/>
</g>
<path class="st0" d="M828-429.3v-90H722.8v87.9c-69.4,21.2-119.9,85.7-119.9,162.1c0,93.6,75.9,169.4,169.4,169.4
	c93.6,0,169.4-75.9,169.4-169.4C941.8-343.4,894.3-406.3,828-429.3z"/>
<path class="st5" d="M919.9-299.4c2,9.8,3.1,19.8,3.1,30.1c0,83.1-67.6,150.7-150.7,150.7s-150.7-67.6-150.7-150.7
	c0-10.3,1.1-20.3,3.1-30.1c9.4-7.4,22.9-11.3,34.2-7.6c14.7,4.8,27.6,18.9,42.6,15.4c12-2.8,19-15.8,30.5-20
	c13.4-5,27.9,3.3,39.8,11.2c12,7.9,26.5,16.1,39.9,11c7.2-2.7,12.4-8.8,18.4-13.7c5.9-4.8,14-8.7,21.1-5.8
	c7,2.8,10.7,11.1,17.7,13.7c5.9,2.2,12.5-0.1,18-3.1c5.5-3,10.8-6.9,16.9-8C910-307.5,918.7-305.6,919.9-299.4z"/>
<path class="st0" d="M834-568.2H716.8c-6.9,0-12.5,5.6-12.5,12.5v23.9c0,6.9,5.6,12.5,12.5,12.5H834c6.9,0,12.5-5.6,12.5-12.5v-23.9
	C846.5-562.6,840.9-568.2,834-568.2z"/>
<rect x="722.8" y="-519.3" class="st3" width="105.3" height="26.3"/>
<g>
	<circle class="st4" cx="722.8" cy="-215.9" r="18.7"/>
	<circle class="st4" cx="802.6" cy="-239.1" r="18.7"/>
</g>
<circle class="st2" cx="767.5" cy="-371" r="18.7"/>
<g>
	<circle class="st4" cx="786.2" cy="-170.4" r="18.7"/>
	
		<ellipse transform="matrix(0.9951 -9.853759e-02 9.853759e-02 0.9951 28.1632 63.5448)" class="st4" cx="657.4" cy="-253.3" rx="15.6" ry="15.6"/>
	<circle class="st4" cx="855.4" cy="-186.1" r="15.6"/>
	<circle class="st4" cx="879.4" cy="-253.3" r="15.6"/>
</g>
<g>
	<circle class="st2" cx="688.6" cy="-349.4" r="15.6"/>
	<circle class="st2" cx="846.5" cy="-349.4" r="15.6"/>
</g>
<path class="st2" d="M1496.6-134.7"/>
<path class="st0" d="M1883.6-1008v-90h-105.3v87.9c-69.4,21.2-119.9,85.7-119.9,162.1c0,93.6,75.9,169.4,169.4,169.4
	c93.6,0,169.4-75.9,169.4-169.4C1997.4-922,1949.8-984.9,1883.6-1008z"/>
<path class="st7" d="M1714.5-792.1c11.6,0.6,27.2,11.6,42.6,10.4c4.9-0.4,8.6-1.5,8.6-1.5c6.7-2.2,9.5-6,21.9-8.2
	c13.4-2.4,27.9,1.6,39.8,5.5c12,3.9,26.5,7.9,39.9,5.4c7.2-1.3,12.4-4.3,18.4-6.7c5.9-2.4,14-4.2,21.1-2.9c8.8,1.7,9,5.6,17.7,6.7
	c8.8,1.1,18.9-4.3,26.5-7.2c0,0,4.5-2,11.1-2.6c0,0,6-1.3,2,13.1c-4.3,15.6-50.3,82.2-136.1,83h0c-65.2,1.3-110.6-38.9-127.7-67.4
	C1687.3-786.1,1704.2-792.6,1714.5-792.1z"/>
<path class="st0" d="M1889.6-1146.8h-117.2c-6.9,0-12.5,5.6-12.5,12.5v23.9c0,6.9,5.6,12.5,12.5,12.5h117.2
	c6.9,0,12.5-5.6,12.5-12.5v-23.9C1902.1-1141.2,1896.5-1146.8,1889.6-1146.8z"/>
<rect x="1778.3" y="-1097.9" class="st3" width="105.3" height="26.3"/>
<g>
	<circle class="st4" cx="1778.3" cy="-794.5" r="18.7"/>
	<circle class="st4" cx="1858.2" cy="-817.7" r="18.7"/>
</g>
<circle class="st2" cx="1823" cy="-949.6" r="18.7"/>
<g>
	<circle class="st4" cx="1841.8" cy="-749" r="18.7"/>
	
		<ellipse transform="matrix(0.9951 -9.853759e-02 9.853759e-02 0.9951 90.3146 164.7416)" class="st4" cx="1713" cy="-831.9" rx="15.6" ry="15.6"/>
	<circle class="st4" cx="1911" cy="-764.7" r="15.6"/>
	<circle class="st4" cx="1934.9" cy="-831.9" r="15.6"/>
</g>
<g>
	<circle class="st2" cx="1744.2" cy="-928" r="15.6"/>
	<circle class="st2" cx="1902.1" cy="-928" r="15.6"/>
</g>
<path class="st0" d="M1361-1008v-90h-105.3v87.9c-69.4,21.2-119.9,85.7-119.9,162.1c0,93.6,75.9,169.4,169.4,169.4
	c93.6,0,169.4-75.9,169.4-169.4C1474.8-922,1427.2-984.9,1361-1008z"/>
<path class="st7" d="M1310.3-697.2c-35.9,1-62.3-12-72.7-17.3c0,0-62.6-30.1-79.2-98.7c-1.6-6.5-2.6-23,0.9-29
	c3.5-6.1,6.3-11.5,17.6-11.1c7.7,0.3,16.9,5.7,27.3,10.4c12.9,6,25.8,14.6,39.9,11.9c11.2-2.1,17.8-12.2,28.5-15.5
	c12.6-3.9,26.1,2.5,37.3,8.6c11.2,6.1,24.8,12.5,37.3,8.5c6.7-2.1,11.6-6.8,17.2-10.6c5.6-3.7,13.1-6.7,19.8-4.5
	c6.5,2.1,10,8.5,16.6,10.6c5,1.6,9.6-0.2,16.8-2.4c10.3-3.2,10.3-3.2,15.8-6.2c5.9-3.2,11.9,0.1,15.9,3.8c7.8,7.1,4.3,22.3,2.9,28.3
	C1444.8-777.8,1395.5-699.5,1310.3-697.2z"/>
<path class="st0" d="M1367-1146.8h-117.2c-6.9,0-12.5,5.6-12.5,12.5v23.9c0,6.9,5.6,12.5,12.5,12.5H1367c6.9,0,12.5-5.6,12.5-12.5
	v-23.9C1379.5-1141.2,1373.9-1146.8,1367-1146.8z"/>
<rect x="1255.8" y="-1097.9" class="st3" width="105.3" height="26.3"/>
<g>
	<circle class="st4" cx="1255.8" cy="-794.5" r="18.7"/>
	<circle class="st4" cx="1335.6" cy="-817.7" r="18.7"/>
</g>
<circle class="st2" cx="1300.5" cy="-949.6" r="18.7"/>
<g>
	<circle class="st4" cx="1319.2" cy="-749" r="18.7"/>
	
		<ellipse transform="matrix(0.9951 -9.853759e-02 9.853759e-02 0.9951 87.7715 113.2489)" class="st4" cx="1190.4" cy="-831.9" rx="15.6" ry="15.6"/>
	<circle class="st4" cx="1388.4" cy="-764.7" r="15.6"/>
	<circle class="st4" cx="1412.4" cy="-831.9" r="15.6"/>
</g>
<g>
	<circle class="st2" cx="1221.6" cy="-928" r="15.6"/>
	<circle class="st2" cx="1379.5" cy="-928" r="15.6"/>
</g>
<path class="st0" d="M289.8-1008v-90H184.6v87.9c-69.4,21.2-119.9,85.7-119.9,162.1c0,93.6,75.9,169.4,169.4,169.4
	c93.6,0,169.4-75.9,169.4-169.4C403.6-922,356-984.9,289.8-1008z"/>
<path class="st7" d="M378-888.9c19.9,64.3-16.1,137.3-61.5,166.9c-32.7,21.3-66.8,24.1-82.4,24.1c-35.4,0-67.9-12.1-93.6-32.6
	c-40-32-67.6-84.3-54.2-147.2c2.2-10.1,11-52.1,52-82.1c72.3-53,46.3,6.9,66.7-1.1c16.9-6.7,16.1-23.8,40.7-4.3
	c25.1,19.9,24.7-19.5,55.9-7.6C347.5-955.3,372.8-905.8,378-888.9z"/>
<path class="st0" d="M295.8-1146.8H178.6c-6.9,0-12.5,5.6-12.5,12.5v23.9c0,6.9,5.6,12.5,12.5,12.5h117.2c6.9,0,12.5-5.6,12.5-12.5
	v-23.9C308.3-1141.2,302.7-1146.8,295.8-1146.8z"/>
<rect x="184.6" y="-1097.9" class="st3" width="105.3" height="26.3"/>
<g>
	<circle class="st4" cx="184.6" cy="-794.5" r="18.7"/>
	<circle class="st4" cx="264.4" cy="-817.7" r="18.7"/>
</g>
<circle class="st2" cx="229.3" cy="-949.6" r="18.7"/>
<g>
	<circle class="st4" cx="248" cy="-749" r="18.7"/>
	
		<ellipse transform="matrix(0.9951 -9.853759e-02 9.853759e-02 0.9951 82.5583 7.6953)" class="st4" cx="119.2" cy="-831.9" rx="15.6" ry="15.6"/>
	<circle class="st4" cx="317.2" cy="-764.7" r="15.6"/>
	<circle class="st4" cx="341.2" cy="-831.9" r="15.6"/>
</g>
<g>
	<circle class="st2" cx="150.4" cy="-928" r="15.6"/>
	<circle class="st2" cx="308.3" cy="-928" r="15.6"/>
</g>
<path class="st0" d="M828-1008v-90H722.8v87.9c-69.4,21.2-119.9,85.7-119.9,162.1c0,93.6,75.9,169.4,169.4,169.4
	c93.6,0,169.4-75.9,169.4-169.4C941.8-922,894.3-984.9,828-1008z"/>
<path class="st7" d="M919.9-878c2,9.8,3.1,19.8,3.1,30.1c0,83.1-67.6,150.7-150.7,150.7s-150.7-67.6-150.7-150.7
	c0-10.3,1.1-20.3,3.1-30.1c9.4-7.4,22.9-11.3,34.2-7.6c14.7,4.8,27.6,18.9,42.6,15.4c12-2.8,19-15.8,30.5-20
	c13.4-5,27.9,3.3,39.8,11.2c12,7.9,26.5,16.1,39.9,11c7.2-2.7,12.4-8.8,18.4-13.7s14-8.7,21.1-5.8c7,2.8,10.7,11.1,17.7,13.7
	c5.9,2.2,12.5-0.1,18-3.1c5.5-3,10.8-6.9,16.9-8C910-886.1,918.7-884.2,919.9-878z"/>
<path class="st0" d="M834-1146.8H716.8c-6.9,0-12.5,5.6-12.5,12.5v23.9c0,6.9,5.6,12.5,12.5,12.5H834c6.9,0,12.5-5.6,12.5-12.5
	v-23.9C846.5-1141.2,840.9-1146.8,834-1146.8z"/>
<rect x="722.8" y="-1097.9" class="st3" width="105.3" height="26.3"/>
<g>
	<circle class="st4" cx="722.8" cy="-794.5" r="18.7"/>
	<circle class="st4" cx="802.6" cy="-817.7" r="18.7"/>
</g>
<circle class="st2" cx="767.5" cy="-949.6" r="18.7"/>
<g>
	<circle class="st4" cx="786.2" cy="-749" r="18.7"/>
	
		<ellipse transform="matrix(0.9951 -9.853759e-02 9.853759e-02 0.9951 85.1776 60.7289)" class="st4" cx="657.4" cy="-831.9" rx="15.6" ry="15.6"/>
	<circle class="st4" cx="855.4" cy="-764.7" r="15.6"/>
	<circle class="st4" cx="879.4" cy="-831.9" r="15.6"/>
</g>
<g>
	<circle class="st2" cx="688.6" cy="-928" r="15.6"/>
	<circle class="st2" cx="846.5" cy="-928" r="15.6"/>
</g>
<path class="st2" d="M1496.6-713.3"/>
<path class="st0" d="M1883.6-1576.1v-90h-105.3v87.9c-69.4,21.2-119.9,85.7-119.9,162.1c0,93.6,75.9,169.4,169.4,169.4
	c93.6,0,169.4-75.9,169.4-169.4C1997.4-1490.2,1949.8-1553.1,1883.6-1576.1z"/>
<path class="st8" d="M1714.5-1360.3c11.6,0.6,27.2,11.6,42.6,10.4c4.9-0.4,8.6-1.5,8.6-1.5c6.7-2.2,9.5-6,21.9-8.2
	c13.4-2.4,27.9,1.6,39.8,5.5c12,3.9,26.5,7.9,39.9,5.4c7.2-1.3,12.4-4.3,18.4-6.7c5.9-2.4,14-4.2,21.1-2.9c8.8,1.7,9,5.6,17.7,6.7
	c8.8,1.1,18.9-4.3,26.5-7.2c0,0,4.5-2,11.1-2.6c0,0,6-1.3,2,13.1c-4.3,15.6-50.3,82.2-136.1,83h0c-65.2,1.3-110.6-38.9-127.7-67.4
	C1687.3-1354.3,1704.2-1360.8,1714.5-1360.3z"/>
<path class="st0" d="M1889.6-1715h-117.2c-6.9,0-12.5,5.6-12.5,12.5v23.9c0,6.9,5.6,12.5,12.5,12.5h117.2c6.9,0,12.5-5.6,12.5-12.5
	v-23.9C1902.1-1709.4,1896.5-1715,1889.6-1715z"/>
<rect x="1778.3" y="-1666.1" class="st3" width="105.3" height="26.3"/>
<g>
	<circle class="st4" cx="1778.3" cy="-1362.7" r="18.7"/>
	<circle class="st4" cx="1858.2" cy="-1385.8" r="18.7"/>
</g>
<circle class="st2" cx="1823" cy="-1517.8" r="18.7"/>
<g>
	<circle class="st4" cx="1841.8" cy="-1317.2" r="18.7"/>
	
		<ellipse transform="matrix(0.9951 -9.853759e-02 9.853759e-02 0.9951 146.3017 161.9765)" class="st4" cx="1713" cy="-1400.1" rx="15.6" ry="15.6"/>
	<circle class="st4" cx="1911" cy="-1332.8" r="15.6"/>
	<circle class="st4" cx="1934.9" cy="-1400.1" r="15.6"/>
</g>
<g>
	<circle class="st2" cx="1744.2" cy="-1496.2" r="15.6"/>
	<circle class="st2" cx="1902.1" cy="-1496.2" r="15.6"/>
</g>
<path class="st0" d="M1361-1576.1v-90h-105.3v87.9c-69.4,21.2-119.9,85.7-119.9,162.1c0,93.6,75.9,169.4,169.4,169.4
	c93.6,0,169.4-75.9,169.4-169.4C1474.8-1490.2,1427.2-1553.1,1361-1576.1z"/>
<path class="st8" d="M1310.3-1265.4c-35.9,1-62.3-12-72.7-17.3c0,0-62.6-30.1-79.2-98.7c-1.6-6.5-2.6-23,0.9-29
	c3.5-6.1,6.3-11.5,17.6-11.1c7.7,0.3,16.9,5.7,27.3,10.4c12.9,6,25.8,14.6,39.9,11.9c11.2-2.1,17.8-12.2,28.5-15.5
	c12.6-3.9,26.1,2.5,37.3,8.6c11.2,6.1,24.8,12.5,37.3,8.5c6.7-2.1,11.6-6.8,17.2-10.6c5.6-3.7,13.1-6.7,19.8-4.5
	c6.5,2.1,10,8.5,16.6,10.6c5,1.6,9.6-0.2,16.8-2.4c10.3-3.2,10.3-3.2,15.8-6.2c5.9-3.2,11.9,0.1,15.9,3.8c7.8,7.1,4.3,22.3,2.9,28.3
	C1444.8-1346,1395.5-1267.7,1310.3-1265.4z"/>
<path class="st0" d="M1367-1715h-117.2c-6.9,0-12.5,5.6-12.5,12.5v23.9c0,6.9,5.6,12.5,12.5,12.5H1367c6.9,0,12.5-5.6,12.5-12.5
	v-23.9C1379.5-1709.4,1373.9-1715,1367-1715z"/>
<rect x="1255.8" y="-1666.1" class="st3" width="105.3" height="26.3"/>
<g>
	<circle class="st4" cx="1255.8" cy="-1362.7" r="18.7"/>
	<circle class="st4" cx="1335.6" cy="-1385.8" r="18.7"/>
</g>
<circle class="st2" cx="1300.5" cy="-1517.8" r="18.7"/>
<g>
	<circle class="st4" cx="1319.2" cy="-1317.2" r="18.7"/>
	
		<ellipse transform="matrix(0.9951 -9.853759e-02 9.853759e-02 0.9951 143.7585 110.4837)" class="st4" cx="1190.4" cy="-1400.1" rx="15.6" ry="15.6"/>
	<circle class="st4" cx="1388.4" cy="-1332.8" r="15.6"/>
	<circle class="st4" cx="1412.4" cy="-1400.1" r="15.6"/>
</g>
<g>
	<circle class="st2" cx="1221.6" cy="-1496.2" r="15.6"/>
	<circle class="st2" cx="1379.5" cy="-1496.2" r="15.6"/>
</g>
<path class="st0" d="M289.8-1576.1v-90H184.6v87.9c-69.4,21.2-119.9,85.7-119.9,162.1c0,93.6,75.9,169.4,169.4,169.4
	c93.6,0,169.4-75.9,169.4-169.4C403.6-1490.2,356-1553.1,289.8-1576.1z"/>
<path class="st8" d="M378-1457.1c19.9,64.3-16.1,137.3-61.5,166.9c-32.7,21.3-66.8,24.1-82.4,24.1c-35.4,0-67.9-12.1-93.6-32.6
	c-40-32-67.6-84.3-54.2-147.2c2.2-10.1,11-52.1,52-82.1c72.3-53,46.3,6.9,66.7-1.1c16.9-6.7,16.1-23.8,40.7-4.3
	c25.1,19.9,24.7-19.5,55.9-7.6C347.5-1523.4,372.8-1474,378-1457.1z"/>
<path class="st0" d="M295.8-1715H178.6c-6.9,0-12.5,5.6-12.5,12.5v23.9c0,6.9,5.6,12.5,12.5,12.5h117.2c6.9,0,12.5-5.6,12.5-12.5
	v-23.9C308.3-1709.4,302.7-1715,295.8-1715z"/>
<rect x="184.6" y="-1666.1" class="st3" width="105.3" height="26.3"/>
<g>
	<circle class="st4" cx="184.6" cy="-1362.7" r="18.7"/>
	<circle class="st4" cx="264.4" cy="-1385.8" r="18.7"/>
</g>
<circle class="st2" cx="229.3" cy="-1517.8" r="18.7"/>
<g>
	<circle class="st4" cx="248" cy="-1317.2" r="18.7"/>
	
		<ellipse transform="matrix(0.9951 -9.853759e-02 9.853759e-02 0.9951 138.5454 4.9301)" class="st4" cx="119.2" cy="-1400.1" rx="15.6" ry="15.6"/>
	<circle class="st4" cx="317.2" cy="-1332.8" r="15.6"/>
	<circle class="st4" cx="341.2" cy="-1400.1" r="15.6"/>
</g>
<g>
	<circle class="st2" cx="150.4" cy="-1496.2" r="15.6"/>
	<circle class="st2" cx="308.3" cy="-1496.2" r="15.6"/>
</g>
<path class="st0" d="M828-1576.1v-90H722.8v87.9c-69.4,21.2-119.9,85.7-119.9,162.1c0,93.6,75.9,169.4,169.4,169.4
	c93.6,0,169.4-75.9,169.4-169.4C941.8-1490.2,894.3-1553.1,828-1576.1z"/>
<path class="st8" d="M919.9-1446.2c2,9.8,3.1,19.8,3.1,30.1c0,83.1-67.6,150.7-150.7,150.7s-150.7-67.6-150.7-150.7
	c0-10.3,1.1-20.3,3.1-30.1c9.4-7.4,22.9-11.3,34.2-7.6c14.7,4.8,27.6,18.9,42.6,15.4c12-2.8,19-15.8,30.5-20
	c13.4-5,27.9,3.3,39.8,11.2c12,7.9,26.5,16.1,39.9,11c7.2-2.7,12.4-8.8,18.4-13.7c5.9-4.8,14-8.7,21.1-5.8
	c7,2.8,10.7,11.1,17.7,13.7c5.9,2.2,12.5-0.1,18-3.1c5.5-3,10.8-6.9,16.9-8C910-1454.2,918.7-1452.3,919.9-1446.2z"/>
<path class="st0" d="M834-1715H716.8c-6.9,0-12.5,5.6-12.5,12.5v23.9c0,6.9,5.6,12.5,12.5,12.5H834c6.9,0,12.5-5.6,12.5-12.5v-23.9
	C846.5-1709.4,840.9-1715,834-1715z"/>
<rect x="722.8" y="-1666.1" class="st3" width="105.3" height="26.3"/>
<g>
	<circle class="st4" cx="722.8" cy="-1362.7" r="18.7"/>
	<circle class="st4" cx="802.6" cy="-1385.8" r="18.7"/>
</g>
<circle class="st2" cx="767.5" cy="-1517.8" r="18.7"/>
<g>
	<circle class="st4" cx="786.2" cy="-1317.2" r="18.7"/>
	
		<ellipse transform="matrix(0.9951 -9.853759e-02 9.853759e-02 0.9951 141.1646 57.9638)" class="st4" cx="657.4" cy="-1400.1" rx="15.6" ry="15.6"/>
	<circle class="st4" cx="855.4" cy="-1332.8" r="15.6"/>
	<circle class="st4" cx="879.4" cy="-1400.1" r="15.6"/>
</g>
<g>
	<circle class="st2" cx="688.6" cy="-1496.2" r="15.6"/>
	<circle class="st2" cx="846.5" cy="-1496.2" r="15.6"/>
</g>
<path class="st2" d="M1496.6-1281.5"/>
</svg>
