<svg id="Capa_1" data-name="Capa 1" xmlns="http://www.w3.org/2000/svg" viewBox="0 0 468.29 468.29"><defs><style>.cls-1{fill:#ebf0f3;}.cls-2{fill:#78237c;}.cls-3{fill:#d5d6db;}.cls-4{fill:#2d93ba;}.cls-5{fill:#27a2db;}</style></defs><title>Nic Beaker</title><path class="cls-1" d="M289.84,138.83v-90H184.57v87.94a169.47,169.47,0,1,0,105.27,2Z"/><path class="cls-2" d="M381.71,268.77a150.71,150.71,0,0,1,3.15,30.08c0,83.1-67.62,150.71-150.71,150.71S83.44,382,83.44,298.85a152.54,152.54,0,0,1,3.09-30.08c9.36-7.42,22.87-11.26,34.23-7.57,14.69,4.76,27.59,18.88,42.63,15.41,12-2.76,19-15.77,30.47-20.05,13.44-5,27.87,3.26,39.84,11.17s26.46,16.11,39.87,11c7.17-2.73,12.42-8.81,18.36-13.66s14-8.68,21.13-5.85,10.65,11.06,17.69,13.74c5.86,2.23,12.46-.06,17.95-3.09s10.75-6.87,16.92-8S380.45,262.62,381.71,268.77Z"/><path class="cls-1" d="M295.82,0H178.58A12.49,12.49,0,0,0,166.1,12.49V36.38a12.49,12.49,0,0,0,12.48,12.49H295.82a12.49,12.49,0,0,0,12.49-12.49V12.49A12.49,12.49,0,0,0,295.82,0Z"/><rect class="cls-3" x="184.57" y="48.87" width="105.27" height="26.27"/><circle class="cls-4" cx="184.57" cy="352.3" r="18.73"/><circle class="cls-4" cx="264.42" cy="329.12" r="18.73"/><circle class="cls-5" cx="229.28" cy="197.18" r="18.73"/><circle class="cls-4" cx="248.01" cy="397.74" r="18.73"/><circle class="cls-4" cx="119.18" cy="314.84" r="15.61" transform="matrix(1, -0.1, 0.1, 1, -30.44, 13.28)"/><circle class="cls-4" cx="317.19" cy="382.13" r="15.61"/><circle class="cls-4" cx="341.17" cy="314.84" r="15.61"/><circle class="cls-5" cx="150.4" cy="218.77" r="15.61"/><circle class="cls-5" cx="308.31" cy="218.77" r="15.61"/></svg>