<svg id="Capa_1" data-name="Capa 1" xmlns="http://www.w3.org/2000/svg" viewBox="0 0 468.29 468.29"><defs><style>.cls-1{fill:#ebf0f3;}.cls-2{fill:#3333e5;}.cls-3{fill:#d5d6db;}.cls-4{fill:#2d93ba;}.cls-5{fill:#27a2db;}</style></defs><title>Nic Beaker</title><path class="cls-1" d="M289.84,138.83v-90H184.57v87.94a169.47,169.47,0,1,0,105.27,2Z"/><path class="cls-2" d="M120.76,354.66c11.65.55,27.24,11.59,42.63,10.37a43.82,43.82,0,0,0,8.6-1.55c6.65-2.2,9.53-6,21.87-8.25,13.44-2.45,27.87,1.59,39.84,5.45s26.46,7.88,39.87,5.39c7.16-1.34,12.42-4.31,18.36-6.68s14-4.24,21.13-2.86c8.84,1.72,9,5.65,17.68,6.72s18.93-4.33,26.47-7.18a40.7,40.7,0,0,1,11.06-2.63s6-1.31,2,13.08c-4.34,15.61-50.33,82.2-136.07,83h0c-65.19,1.27-110.56-38.89-127.74-67.43C93.52,360.71,110.46,354.17,120.76,354.66Z"/><path class="cls-1" d="M295.82,0H178.58A12.49,12.49,0,0,0,166.1,12.49V36.38a12.49,12.49,0,0,0,12.48,12.49H295.82a12.49,12.49,0,0,0,12.49-12.49V12.49A12.49,12.49,0,0,0,295.82,0Z"/><rect class="cls-3" x="184.57" y="48.87" width="105.27" height="26.27"/><circle class="cls-4" cx="184.57" cy="352.3" r="18.73"/><circle class="cls-4" cx="264.42" cy="329.12" r="18.73"/><circle class="cls-5" cx="229.28" cy="197.18" r="18.73"/><circle class="cls-4" cx="248.01" cy="397.74" r="18.73"/><circle class="cls-4" cx="119.18" cy="314.84" r="15.61" transform="matrix(1, -0.1, 0.1, 1, -30.44, 13.28)"/><circle class="cls-4" cx="317.19" cy="382.13" r="15.61"/><circle class="cls-4" cx="341.17" cy="314.84" r="15.61"/><circle class="cls-5" cx="150.4" cy="218.77" r="15.61"/><circle class="cls-5" cx="308.31" cy="218.77" r="15.61"/></svg>