<svg id="Capa_1" data-name="Capa 1" xmlns="http://www.w3.org/2000/svg" viewBox="0 0 468.29 468.29"><defs><style>.cls-1{fill:#ebf0f3;}.cls-2{fill:#f93a3a;}.cls-3{fill:#d5d6db;}.cls-4{fill:#2d93ba;}.cls-5{fill:#27a2db;}</style></defs><title>Nic Beaker</title><path class="cls-1" d="M289.84,138.83v-90H184.57v87.94a169.47,169.47,0,1,0,105.27,2Z"/><path class="cls-2" d="M239.09,449.56c-35.93,1-62.29-12-72.7-17.25,0,0-62.57-30.09-79.16-98.74-1.57-6.51-2.56-23,.87-29s6.29-11.46,17.6-11.05c7.69.27,16.92,5.67,27.25,10.43,12.93,5.95,25.83,14.59,39.91,11.91,11.19-2.14,17.75-12.19,28.51-15.5,12.59-3.87,26.09,2.52,37.3,8.63s24.76,12.46,37.31,8.51c6.71-2.11,11.63-6.8,17.19-10.55s13.11-6.71,19.78-4.52,10,8.55,16.55,10.61c5,1.58,9.57-.17,16.81-2.38,10.33-3.16,10.33-3.16,15.84-6.2,5.86-3.22,11.85.14,15.94,3.82,7.83,7.06,4.33,22.3,2.94,28.3C373.59,369,324.34,447.28,239.09,449.56Z"/><path class="cls-1" d="M295.82,0H178.58A12.49,12.49,0,0,0,166.1,12.49V36.38a12.49,12.49,0,0,0,12.48,12.49H295.82a12.49,12.49,0,0,0,12.49-12.49V12.49A12.49,12.49,0,0,0,295.82,0Z"/><rect class="cls-3" x="184.57" y="48.87" width="105.27" height="26.27"/><circle class="cls-4" cx="184.57" cy="352.3" r="18.73"/><circle class="cls-4" cx="264.42" cy="329.12" r="18.73"/><circle class="cls-5" cx="229.28" cy="197.18" r="18.73"/><circle class="cls-4" cx="248.01" cy="397.74" r="18.73"/><circle class="cls-4" cx="119.18" cy="314.84" r="15.61" transform="matrix(1, -0.1, 0.1, 1, -30.44, 13.28)"/><circle class="cls-4" cx="317.19" cy="382.13" r="15.61"/><circle class="cls-4" cx="341.17" cy="314.84" r="15.61"/><circle class="cls-5" cx="150.4" cy="218.77" r="15.61"/><circle class="cls-5" cx="308.31" cy="218.77" r="15.61"/></svg>