<svg id="Capa_1" data-name="Capa 1" xmlns="http://www.w3.org/2000/svg" viewBox="0 0 468.29 468.29"><defs><style>.cls-1{fill:#ebf0f3;}.cls-2{fill:#3333e5;}.cls-3{fill:#d5d6db;}.cls-4{fill:#2d93ba;}.cls-5{fill:#27a2db;}</style></defs><title>Nic Beaker</title><path class="cls-1" d="M289.84,138.83v-90H184.57v87.94a169.47,169.47,0,1,0,105.27,2Z"/><path class="cls-2" d="M378,257.87c19.9,64.34-16.07,137.29-61.52,166.93-32.73,21.35-66.78,24.12-82.37,24.12a149.39,149.39,0,0,1-93.64-32.64c-40-32-67.64-84.33-54.24-147.2,2.16-10.13,11-52.07,52-82.1,72.28-53,46.31,6.94,66.72-1.14,16.94-6.7,16.12-23.78,40.7-4.3,25.14,19.91,24.68-19.53,55.9-7.59C347.54,191.52,372.82,241,378,257.87Z"/><path class="cls-1" d="M295.82,0H178.58A12.49,12.49,0,0,0,166.1,12.49V36.38a12.49,12.49,0,0,0,12.48,12.49H295.82a12.49,12.49,0,0,0,12.49-12.49V12.49A12.49,12.49,0,0,0,295.82,0Z"/><rect class="cls-3" x="184.57" y="48.87" width="105.27" height="26.27"/><circle class="cls-4" cx="184.57" cy="352.3" r="18.73"/><circle class="cls-4" cx="264.42" cy="329.12" r="18.73"/><circle class="cls-5" cx="229.28" cy="197.18" r="18.73"/><circle class="cls-4" cx="248.01" cy="397.74" r="18.73"/><circle class="cls-4" cx="119.18" cy="314.84" r="15.61" transform="matrix(1, -0.1, 0.1, 1, -30.44, 13.28)"/><circle class="cls-4" cx="317.19" cy="382.13" r="15.61"/><circle class="cls-4" cx="341.17" cy="314.84" r="15.61"/><circle class="cls-5" cx="150.4" cy="218.77" r="15.61"/><circle class="cls-5" cx="308.31" cy="218.77" r="15.61"/></svg>