<svg id="Capa_1" enable-background="new 0 0 512 512" height="512" viewBox="0 0 512 512" width="512" xmlns="http://www.w3.org/2000/svg"><g><g><path d="m134.383 430.84-24.906-29.629c-1.899-2.261-4.701-3.565-7.654-3.565s-5.755 1.305-7.654 3.565l-24.911 29.634c-.666.793-1.407 1.604-2.047 2.294-17.192 18.578-16.633 47.133 1.263 65.045.032.034.065.066.098.1 8.886 8.845 20.696 13.716 33.25 13.716 12.572 0 24.394-4.885 33.287-13.754 8.9-8.875 13.803-20.68 13.803-33.241 0-11.855-4.431-23.171-12.474-31.86-.676-.733-1.393-1.518-2.055-2.305zm-13.396 53.243c-5.119 5.105-11.925 7.917-19.165 7.917-7.206 0-13.983-2.784-19.091-7.841-.024-.025-.05-.05-.074-.075-10.306-10.279-10.643-26.69-.77-37.359.799-.862 1.741-1.895 2.68-3.011l17.255-20.527 17.249 20.52c.932 1.109 1.88 2.148 2.688 3.021 4.613 4.983 7.153 11.475 7.153 18.277 0 7.208-2.814 13.983-7.925 19.078z"/><path d="m457.325 71.422c0-19.077-7.429-37.014-20.919-50.503-13.489-13.49-31.425-20.919-50.503-20.919s-37.014 7.429-50.503 20.919l-48.026 48.025-10.597-10.597c-3.905-3.902-10.235-3.904-14.143 0l-34.037 34.036c-1.875 1.875-2.929 4.419-2.929 7.071s1.054 5.195 2.929 7.071l10.598 10.598-126.077 126.077c-.241.241-.48.485-.718.729-.029.03-.058.06-.086.09-16.92 17.463-23.642 41.712-18.474 65.011-2.243 1.47-4.34 3.178-6.276 5.114-15.333 15.334-15.333 40.283 0 55.616 7.428 7.429 17.304 11.52 27.809 11.52 10.504 0 20.381-4.091 27.809-11.519 1.941-1.942 3.653-4.045 5.127-6.295 5.006 1.088 10.077 1.621 15.131 1.621 18.693-.002 37.109-7.305 50.687-20.881l126.074-126.076 10.598 10.598c1.876 1.875 4.419 2.929 7.071 2.929s5.196-1.054 7.071-2.929l34.036-34.037c3.905-3.905 3.905-10.237 0-14.143l-10.597-10.597 48.025-48.026c13.492-13.489 20.92-31.425 20.92-50.503zm-291.969 147.826h36.509c5.522 0 10-4.478 10-10s-4.478-10-10-10h-16.509l67.982-67.981 67.981 67.981h-29.043c-5.522 0-10 4.478-10 10s4.478 10 10 10h18.521l-21.651 21.651h-145.442zm34.627 110.816c-13.942 13.941-34.969 18.699-53.571 12.11-2.509-.888-5.269-.74-7.67.414-2.399 1.153-4.24 3.216-5.114 5.73-.958 2.757-2.502 5.213-4.589 7.3-3.65 3.65-8.504 5.661-13.666 5.661-5.163 0-10.016-2.011-13.666-5.661s-5.661-8.504-5.661-13.666 2.011-10.016 5.661-13.666c2.087-2.087 4.543-3.631 7.3-4.589 2.515-.874 4.577-2.715 5.73-5.114 1.153-2.4 1.303-5.16.414-7.67-6.128-17.303-2.708-36.104 8.865-50.015h145.132zm157.887-122.55-108.058-108.059 19.895-19.895 108.059 108.059zm16.368-51.705-72.722-72.722 48.026-48.025c9.713-9.713 22.626-15.062 36.361-15.062s26.648 5.349 36.36 15.062c9.713 9.712 15.062 22.625 15.062 36.36s-5.349 26.648-15.062 36.36z"/><path d="m256.118 205.42c-1.556-3.738-5.302-6.198-9.349-6.168-4.201.031-7.989 2.825-9.343 6.785-1.347 3.941-.025 8.461 3.247 11.043 3.287 2.594 7.931 2.856 11.492.656 4.124-2.548 5.782-7.852 3.953-12.316z"/></g></g></svg>